<svg width="1000" height="677" viewBox="0 0 1000 677" fill="none" xmlns="http://www.w3.org/2000/svg">
<rect x="270" y="62" width="400" height="50" rx="23" fill="#5865F2"/>
<rect x="145" y="332" width="310" height="50" rx="23" fill="#5865F2"/>
<rect x="234" y="201" width="264" height="50" rx="23" fill="#5865F2"/>
<rect x="55" y="201" width="148" height="50" rx="23" fill="#5865F2"/>
<rect x="55" y="201" width="148" height="50" rx="23" fill="#5865F2"/>
<path d="M145 136C145 123.297 155.297 113 168 113H199C211.703 113 222 123.297 222 136V140C222 152.703 211.703 163 199 163H168C155.297 163 145 152.703 145 140V136Z" fill="#5865F2"/>
<path d="M145 136C145 123.297 155.297 113 168 113H199C211.703 113 222 123.297 222 136V140C222 152.703 211.703 163 199 163H168C155.297 163 145 152.703 145 140V136Z" fill="#5865F2"/>
<circle cx="639.5" cy="349.5" r="287.5" fill="url(#paint0_linear_1247_103)"/>
<rect x="547" y="219" width="185" height="50" rx="23" fill="#F4F5FF"/>
<rect x="715.958" y="210" width="185" height="50" rx="23" transform="rotate(55 715.958 210)" fill="#F4F5FF"/>
<rect x="456" y="361.543" width="185" height="50" rx="23" transform="rotate(-55 456 361.543)" fill="#F4F5FF"/>
<rect x="731.069" y="494.222" width="185" height="50" rx="23" transform="rotate(-180 731.069 494.222)" fill="#F4F5FF"/>
<rect x="562.112" y="503.222" width="185" height="50" rx="23" transform="rotate(-125 562.112 503.222)" fill="#F4F5FF"/>
<rect x="822.069" y="351.679" width="185" height="50" rx="23" transform="rotate(125 822.069 351.679)" fill="#F4F5FF"/>
<path d="M602.375 312.375C606.125 313.042 609.208 313.5 611.625 313.75C614.042 314 616 314.208 617.5 314.375C619.25 314.542 620.625 314.583 621.625 314.5H625.375C626.708 314.5 628.375 314.5 630.375 314.5C632.458 314.417 635.042 314.375 638.125 314.375C639.875 318.458 641.458 322.208 642.875 325.625C644.375 329.042 645.625 331.958 646.625 334.375C647.792 337.292 648.875 339.917 649.875 342.25C651.042 345.167 652.292 348.375 653.625 351.875C654.958 355.375 656.167 358.667 657.25 361.75C658.417 364.833 659.375 367.375 660.125 369.375C660.875 371.375 661.25 372.292 661.25 372.125C661.25 372.042 661.292 371.208 661.375 369.625C661.458 367.958 661.542 365.917 661.625 363.5C661.708 361 661.792 358.292 661.875 355.375C662.042 352.375 662.125 349.5 662.125 346.75C662.208 343.917 662.25 341.333 662.25 339C662.25 336.667 662.167 334.917 662 333.75C661.75 332.333 661.25 330.708 660.5 328.875C659.833 327.292 658.917 325.417 657.75 323.25C656.583 321 654.958 318.458 652.875 315.625C656.292 315.708 659.083 315.75 661.25 315.75C663.417 315.75 665.167 315.75 666.5 315.75C668 315.75 669.167 315.708 670 315.625C671.083 315.625 672.417 315.542 674 315.375C675.417 315.208 677.167 315.083 679.25 315C681.417 314.833 684.083 314.625 687.25 314.375C685.417 316.042 683.958 317.625 682.875 319.125C681.792 320.625 680.917 321.958 680.25 323.125C679.5 324.458 679 325.708 678.75 326.875C678.417 328.375 678.125 330.833 677.875 334.25C677.708 337.583 677.5 341.333 677.25 345.5C677.083 349.667 676.917 354 676.75 358.5C676.583 363 676.417 367.125 676.25 370.875C676.25 373.708 676.167 376.75 676 380C675.833 382.75 675.667 385.875 675.5 389.375C675.333 392.792 675.125 396.25 674.875 399.75L663.75 400C660.5 394.25 657.75 389.333 655.5 385.25C653.333 381.083 651.542 377.667 650.125 375C648.542 371.917 647.208 369.333 646.125 367.25C645.208 365.25 644 362.958 642.5 360.375C641.25 358.208 639.667 355.542 637.75 352.375C635.917 349.208 633.708 345.583 631.125 341.5C630.875 347.25 630.75 352.167 630.75 356.25C630.833 360.25 630.958 363.583 631.125 366.25C631.375 369.333 631.667 371.917 632 374C632.417 376 633 378.25 633.75 380.75C634.417 382.917 635.208 385.458 636.125 388.375C637.125 391.292 638.333 394.583 639.75 398.25C634.833 398 631.167 397.875 628.75 397.875H625C623.833 397.875 622.25 398 620.25 398.25C618.583 398.417 616.292 398.667 613.375 399C610.542 399.333 607 399.792 602.75 400.375C604.75 397.958 606.333 395.75 607.5 393.75C608.75 391.667 609.708 389.917 610.375 388.5C611.208 386.833 611.792 385.375 612.125 384.125C612.375 382.792 612.542 380.5 612.625 377.25C612.708 373.917 612.708 370.167 612.625 366C612.625 361.75 612.542 357.292 612.375 352.625C612.292 347.958 612.167 343.625 612 339.625C611.833 335.625 611.625 332.208 611.375 329.375C611.208 326.542 611.083 324.792 611 324.125C610.75 323.042 610.25 321.875 609.5 320.625C608.833 319.542 607.958 318.333 606.875 317C605.792 315.583 604.292 314.042 602.375 312.375Z" fill="white"/>
<defs>
<linearGradient id="paint0_linear_1247_103" x1="444" y1="211" x2="886.5" y2="506" gradientUnits="userSpaceOnUse">
<stop stop-color="#5865F2"/>
<stop offset="1" stop-color="#EB45D0"/>
</linearGradient>
</defs>
</svg>
	